<?xml version="1.0" encoding="UTF-8" standalone="no"?>
<!DOCTYPE svg PUBLIC "-//W3C//DTD SVG 1.1//EN"
 "http://www.w3.org/Graphics/SVG/1.1/DTD/svg11.dtd">
<!-- Generated by graphviz version 2.43.0 (0)
 -->
<!-- Title: D Pages: 1 -->
<svg width="601pt" height="246pt"
 viewBox="0.00 0.00 600.68 245.50" xmlns="http://www.w3.org/2000/svg" xmlns:xlink="http://www.w3.org/1999/xlink">
<g id="graph0" class="graph" transform="scale(1 1) rotate(0) translate(4 241.5)">
<title>D</title>
<polygon fill="white" stroke="transparent" points="-4,4 -4,-241.5 596.68,-241.5 596.68,4 -4,4"/>
<text text-anchor="middle" x="296.34" y="-6.8" font-family="Helvetica,sans-Serif" font-size="9.00" fill="#000060">&#45; message_queue_dfd &#45;</text>
<g id="clust1" class="cluster">
<title>cluster_0</title>
<polygon fill="none" stroke="black" stroke-dasharray="5,2" points="8,-77.5 8,-229.5 385.68,-229.5 385.68,-77.5 8,-77.5"/>
<text text-anchor="middle" x="196.84" y="-218.3" font-family="Helvetica,sans-Serif" font-size="9.00" fill="#000060">Trusted</text>
</g>
<!-- b -->
<g id="node1" class="node">
<title>b</title>
<polygon fill="none" stroke="black" points="569.18,-210.5 513.18,-210.5 513.18,-174.5 569.18,-174.5 569.18,-210.5"/>
<text text-anchor="middle" x="541.18" y="-190" font-family="Helvetica,sans-Serif" font-size="10.00">Browser</text>
</g>
<!-- wa -->
<g id="node2" class="node">
<title>wa</title>
<ellipse fill="#eeeeee" stroke="black" cx="312.34" cy="-178.5" rx="55.85" ry="18"/>
<text text-anchor="middle" x="312.34" y="-176" font-family="Helvetica,sans-Serif" font-size="10.00">Web Application</text>
</g>
<!-- b&#45;&gt;wa -->
<g id="edge1" class="edge">
<title>b&#45;&gt;wa</title>
<path fill="none" stroke="gray" d="M512.97,-193.18C483.88,-193.66 436.45,-193.74 395.68,-190.5 388.17,-189.9 380.31,-189.05 372.54,-188.07"/>
<polygon fill="gray" stroke="gray" points="372.8,-184.58 362.42,-186.73 371.87,-191.52 372.8,-184.58"/>
<text text-anchor="middle" x="433.68" y="-195.5" font-family="Times,serif" font-style="italic" font-size="10.00">Web Request</text>
</g>
<!-- wa&#45;&gt;b -->
<g id="edge2" class="edge">
<title>wa&#45;&gt;b</title>
<path fill="none" stroke="gray" d="M367.36,-175.12C398.04,-173.96 437.11,-173.76 471.68,-177.5 482.03,-178.62 493.11,-180.66 503.27,-182.89"/>
<polygon fill="gray" stroke="gray" points="502.54,-186.32 513.07,-185.15 504.12,-179.49 502.54,-186.32"/>
<text text-anchor="middle" x="433.68" y="-180.5" font-family="Times,serif" font-style="italic" font-size="10.00">Web Response</text>
</g>
<!-- mq -->
<g id="node4" class="node">
<title>mq</title>
<polygon fill="black" stroke="transparent" points="500.18,-139.5 500.18,-143.5 583.18,-143.5 583.18,-139.5 500.18,-139.5"/>
<text text-anchor="start" x="502.18" y="-127.5" font-family="Helvetica,sans-Serif" font-size="10.00">Message Queue</text>
<polygon fill="black" stroke="transparent" points="500.18,-116.5 500.18,-120.5 583.18,-120.5 583.18,-116.5 500.18,-116.5"/>
</g>
<!-- wa&#45;&gt;mq -->
<g id="edge4" class="edge">
<title>wa&#45;&gt;mq</title>
<path fill="none" stroke="gray" d="M356.84,-167.53C369.35,-164.49 383.04,-161.26 395.68,-158.5 423.12,-152.51 453.64,-146.5 479.53,-141.6"/>
<polygon fill="gray" stroke="gray" points="480.4,-145 489.57,-139.71 479.1,-138.12 480.4,-145"/>
<text text-anchor="middle" x="433.68" y="-161.5" font-family="Times,serif" font-style="italic" font-size="10.00">Put Message</text>
</g>
<!-- bw -->
<g id="node3" class="node">
<title>bw</title>
<ellipse fill="#eeeeee" stroke="black" cx="312.34" cy="-110.5" rx="65.18" ry="18"/>
<text text-anchor="middle" x="312.34" y="-108" font-family="Helvetica,sans-Serif" font-size="10.00">Background Worker</text>
</g>
<!-- mq&#45;&gt;bw -->
<g id="edge5" class="edge">
<title>mq&#45;&gt;bw</title>
<path fill="none" stroke="gray" d="M489.62,-114.87C483.63,-113.5 477.55,-112.32 471.68,-111.5 444.16,-107.67 413.68,-106.7 386.88,-106.94"/>
<polygon fill="gray" stroke="gray" points="386.75,-103.44 376.8,-107.09 386.85,-110.44 386.75,-103.44"/>
<text text-anchor="middle" x="433.68" y="-114.5" font-family="Times,serif" font-style="italic" font-size="10.00">Message</text>
</g>
<!-- db -->
<g id="node5" class="node">
<title>db</title>
<polygon fill="black" stroke="transparent" points="50.5,-56.5 50.5,-60.5 101.5,-60.5 101.5,-56.5 50.5,-56.5"/>
<text text-anchor="start" x="52.5" y="-44.5" font-family="Helvetica,sans-Serif" font-size="10.00">Database</text>
<polygon fill="black" stroke="transparent" points="50.5,-33.5 50.5,-37.5 101.5,-37.5 101.5,-33.5 50.5,-33.5"/>
</g>
<!-- db&#45;&gt;bw -->
<g id="edge6" class="edge">
<title>db&#45;&gt;bw</title>
<path fill="none" stroke="gray" d="M111.15,-56.8C148.99,-66.95 210.16,-83.36 254.94,-95.37"/>
<polygon fill="gray" stroke="gray" points="254.23,-98.8 264.8,-98.01 256.05,-92.04 254.23,-98.8"/>
<text text-anchor="middle" x="191" y="-90.5" font-family="Times,serif" font-style="italic" font-size="10.00">Query Results</text>
</g>
<!-- wac -->
<g id="node6" class="node">
<title>wac</title>
<polygon fill="black" stroke="transparent" points="34.5,-193.5 34.5,-197.5 117.5,-197.5 117.5,-193.5 34.5,-193.5"/>
<text text-anchor="start" x="36.5" y="-181.5" font-family="Helvetica,sans-Serif" font-size="10.00">Web Application</text>
<text text-anchor="start" x="60.5" y="-170.5" font-family="Helvetica,sans-Serif" font-size="10.00">Config</text>
<polygon fill="black" stroke="transparent" points="34.5,-159.5 34.5,-163.5 117.5,-163.5 117.5,-159.5 34.5,-159.5"/>
</g>
<!-- wac&#45;&gt;wa -->
<g id="edge3" class="edge">
<title>wac&#45;&gt;wa</title>
<path fill="none" stroke="gray" stroke-dasharray="5,2" d="M127.17,-178.5C161.92,-178.5 208.37,-178.5 245.92,-178.5"/>
<polygon fill="gray" stroke="gray" points="246.26,-182 256.26,-178.5 246.25,-175 246.26,-182"/>
<text text-anchor="middle" x="191" y="-192.5" font-family="Times,serif" font-style="italic" font-size="10.00">Read Web App</text>
<text text-anchor="middle" x="191" y="-181.5" font-family="Times,serif" font-style="italic" font-size="10.00">Config</text>
</g>
<!-- bwc -->
<g id="node7" class="node">
<title>bwc</title>
<polygon fill="black" stroke="transparent" points="26.5,-125.5 26.5,-129.5 125.5,-129.5 125.5,-125.5 26.5,-125.5"/>
<text text-anchor="start" x="28.5" y="-113.5" font-family="Helvetica,sans-Serif" font-size="10.00">Background Worker</text>
<text text-anchor="start" x="60.5" y="-102.5" font-family="Helvetica,sans-Serif" font-size="10.00">Config</text>
<polygon fill="black" stroke="transparent" points="26.5,-91.5 26.5,-95.5 125.5,-95.5 125.5,-91.5 26.5,-91.5"/>
</g>
<!-- bwc&#45;&gt;bw -->
<g id="edge7" class="edge">
<title>bwc&#45;&gt;bw</title>
<path fill="none" stroke="gray" stroke-dasharray="5,2" d="M135.15,-110.5C165.93,-110.5 203.97,-110.5 236.82,-110.5"/>
<polygon fill="gray" stroke="gray" points="236.83,-114 246.83,-110.5 236.83,-107 236.83,-114"/>
<text text-anchor="middle" x="191" y="-124.5" font-family="Times,serif" font-style="italic" font-size="10.00">Read Worker</text>
<text text-anchor="middle" x="191" y="-113.5" font-family="Times,serif" font-style="italic" font-size="10.00">Config</text>
</g>
</g>
</svg>
