<?xml version="1.0" encoding="UTF-8" standalone="no"?>
<!DOCTYPE svg PUBLIC "-//W3C//DTD SVG 1.1//EN"
 "http://www.w3.org/Graphics/SVG/1.1/DTD/svg11.dtd">
<!-- Generated by graphviz version 2.43.0 (0)
 -->
<!-- Title: D Pages: 1 -->
<svg width="755pt" height="307pt"
 viewBox="0.00 0.00 754.79 306.84" xmlns="http://www.w3.org/2000/svg" xmlns:xlink="http://www.w3.org/1999/xlink">
<g id="graph0" class="graph" transform="scale(1 1) rotate(0) translate(4 302.84)">
<title>D</title>
<polygon fill="white" stroke="transparent" points="-4,4 -4,-302.84 750.79,-302.84 750.79,4 -4,4"/>
<text text-anchor="middle" x="373.4" y="-6.8" font-family="Helvetica,sans-Serif" font-size="9.00" fill="#000060">&#45; iot_dfd &#45;</text>
<g id="clust1" class="cluster">
<title>cluster_0</title>
<polygon fill="none" stroke="black" stroke-dasharray="5,2" points="8,-164.84 8,-288.84 485.54,-288.84 485.54,-164.84 8,-164.84"/>
<text text-anchor="middle" x="246.77" y="-277.64" font-family="Helvetica,sans-Serif" font-size="9.00" fill="#000060">IoT Edge Device</text>
</g>
<g id="clust2" class="cluster">
<title>cluster_1</title>
<polygon fill="none" stroke="black" stroke-dasharray="5,2" points="578.54,-42.84 578.54,-290.84 738.79,-290.84 738.79,-42.84 578.54,-42.84"/>
<text text-anchor="middle" x="658.67" y="-279.64" font-family="Helvetica,sans-Serif" font-size="9.00" fill="#000060">Azure</text>
</g>
<!-- mo -->
<g id="node1" class="node">
<title>mo</title>
<ellipse fill="#eeeeee" stroke="black" cx="64.27" cy="-244.84" rx="27" ry="18"/>
<text text-anchor="middle" x="64.27" y="-242.34" font-family="Helvetica,sans-Serif" font-size="10.00">M1</text>
</g>
<!-- mt -->
<g id="node2" class="node">
<title>mt</title>
<ellipse fill="#eeeeee" stroke="black" cx="264.04" cy="-244.84" rx="27" ry="18"/>
<text text-anchor="middle" x="264.04" y="-242.34" font-family="Helvetica,sans-Serif" font-size="10.00">M2</text>
</g>
<!-- mo&#45;&gt;mt -->
<g id="edge3" class="edge">
<title>mo&#45;&gt;mt</title>
<path fill="none" stroke="gray" d="M101.72,-244.84C137.27,-244.84 191.03,-244.84 226.58,-244.84"/>
<polygon fill="gray" stroke="gray" points="101.53,-241.34 91.53,-244.84 101.53,-248.34 101.53,-241.34"/>
<polygon fill="gray" stroke="gray" points="226.98,-248.34 236.98,-244.84 226.98,-241.34 226.98,-248.34"/>
<text text-anchor="middle" x="161.04" y="-247.84" font-family="Times,serif" font-style="italic" font-size="10.00">Websockets</text>
</g>
<!-- b -->
<g id="node5" class="node">
<title>b</title>
<polygon fill="none" stroke="black" points="292.04,-156.84 236.04,-156.84 236.04,-120.84 292.04,-120.84 292.04,-156.84"/>
<text text-anchor="middle" x="264.04" y="-136.34" font-family="Helvetica,sans-Serif" font-size="10.00">Browser</text>
</g>
<!-- mo&#45;&gt;b -->
<g id="edge2" class="edge">
<title>mo&#45;&gt;b</title>
<path fill="none" stroke="gray" d="M88.03,-235.89C114.39,-224.92 158.41,-204.7 191.54,-179.84 200.84,-172.85 199.95,-167.42 209.54,-160.84 214.76,-157.26 220.65,-154.11 226.56,-151.39"/>
<polygon fill="gray" stroke="gray" points="227.94,-154.61 235.79,-147.48 225.21,-148.16 227.94,-154.61"/>
<text text-anchor="middle" x="161.04" y="-217.84" font-family="Times,serif" font-style="italic" font-size="10.00">Response</text>
</g>
<!-- mh -->
<g id="node3" class="node">
<title>mh</title>
<ellipse fill="#eeeeee" stroke="black" cx="450.54" cy="-190.84" rx="27" ry="18"/>
<text text-anchor="middle" x="450.54" y="-188.34" font-family="Helvetica,sans-Serif" font-size="10.00">M3</text>
</g>
<!-- mt&#45;&gt;mh -->
<g id="edge4" class="edge">
<title>mt&#45;&gt;mh</title>
<path fill="none" stroke="gray" d="M297.75,-232.74C309.86,-228.44 323.76,-223.7 336.54,-219.84 362.6,-211.95 392.44,-204.35 414.92,-198.91"/>
<polygon fill="gray" stroke="gray" points="296.29,-229.55 288.06,-236.23 298.66,-236.14 296.29,-229.55"/>
<polygon fill="gray" stroke="gray" points="415.78,-202.31 424.68,-196.57 414.14,-195.5 415.78,-202.31"/>
<text text-anchor="middle" x="371.04" y="-222.84" font-family="Times,serif" font-style="italic" font-size="10.00">Websockets</text>
</g>
<!-- as -->
<g id="node10" class="node">
<title>as</title>
<polygon fill="black" stroke="transparent" points="622.67,-253.84 622.67,-257.84 695.67,-257.84 695.67,-253.84 622.67,-253.84"/>
<text text-anchor="start" x="624.67" y="-241.84" font-family="Helvetica,sans-Serif" font-size="10.00">Azure Storage</text>
<polygon fill="black" stroke="transparent" points="622.67,-230.84 622.67,-234.84 695.67,-234.84 695.67,-230.84 622.67,-230.84"/>
</g>
<!-- mt&#45;&gt;as -->
<g id="edge5" class="edge">
<title>mt&#45;&gt;as</title>
<path fill="none" stroke="gray" d="M291.11,-244.84C354.14,-244.84 515.96,-244.84 601.97,-244.84"/>
<polygon fill="gray" stroke="gray" points="602.08,-248.34 612.08,-244.84 602.08,-241.34 602.08,-248.34"/>
<text text-anchor="middle" x="450.54" y="-269.84" font-family="Times,serif" font-style="italic" font-size="10.00">Uploading</text>
<text text-anchor="middle" x="450.54" y="-258.84" font-family="Times,serif" font-style="italic" font-size="10.00">Feedback</text>
<text text-anchor="middle" x="450.54" y="-247.84" font-family="Times,serif" font-style="italic" font-size="10.00">Frames</text>
</g>
<!-- acs -->
<g id="node8" class="node">
<title>acs</title>
<ellipse fill="#eeeeee" stroke="black" cx="658.67" cy="-185.84" rx="66.44" ry="21.43"/>
<text text-anchor="middle" x="658.67" y="-188.84" font-family="Helvetica,sans-Serif" font-size="10.00">Azure Cognitive</text>
<text text-anchor="middle" x="658.67" y="-177.84" font-family="Helvetica,sans-Serif" font-size="10.00">Service</text>
</g>
<!-- mh&#45;&gt;acs -->
<g id="edge6" class="edge">
<title>mh&#45;&gt;acs</title>
<path fill="none" stroke="gray" d="M468.4,-176.92C476.17,-171.38 485.8,-165.67 495.54,-162.84 531.16,-152.46 572.59,-158.64 604.66,-167.19"/>
<polygon fill="gray" stroke="gray" points="603.72,-170.57 614.29,-169.91 605.62,-163.83 603.72,-170.57"/>
<text text-anchor="middle" x="532.04" y="-187.84" font-family="Times,serif" font-style="italic" font-size="10.00">Request(OCR,</text>
<text text-anchor="middle" x="532.04" y="-176.84" font-family="Times,serif" font-style="italic" font-size="10.00">Text to</text>
<text text-anchor="middle" x="532.04" y="-165.84" font-family="Times,serif" font-style="italic" font-size="10.00">Speech)</text>
</g>
<!-- aa -->
<g id="node9" class="node">
<title>aa</title>
<ellipse fill="#eeeeee" stroke="black" cx="658.67" cy="-125.84" rx="72.25" ry="21.43"/>
<text text-anchor="middle" x="658.67" y="-128.84" font-family="Helvetica,sans-Serif" font-size="10.00">Azure Application</text>
<text text-anchor="middle" x="658.67" y="-117.84" font-family="Helvetica,sans-Serif" font-size="10.00">Insights</text>
</g>
<!-- mh&#45;&gt;aa -->
<g id="edge7" class="edge">
<title>mh&#45;&gt;aa</title>
<path fill="none" stroke="gray" d="M461.66,-174.22C469.44,-163.04 481.26,-149.07 495.54,-141.84 520.38,-129.26 550.08,-123.99 577.24,-122.26"/>
<polygon fill="gray" stroke="gray" points="577.69,-125.75 587.51,-121.77 577.35,-118.76 577.69,-125.75"/>
<text text-anchor="middle" x="532.04" y="-144.84" font-family="Times,serif" font-style="italic" font-size="10.00">Telemetry</text>
</g>
<!-- er -->
<g id="node4" class="node">
<title>er</title>
<ellipse fill="#eeeeee" stroke="black" cx="64.27" cy="-190.84" rx="48.04" ry="18"/>
<text text-anchor="middle" x="64.27" y="-188.34" font-family="Helvetica,sans-Serif" font-size="10.00">EgdeRuntime</text>
</g>
<!-- aih -->
<g id="node7" class="node">
<title>aih</title>
<ellipse fill="#eeeeee" stroke="black" cx="658.67" cy="-68.84" rx="50.07" ry="18"/>
<text text-anchor="middle" x="658.67" y="-66.34" font-family="Helvetica,sans-Serif" font-size="10.00">Azure IoT Hub</text>
</g>
<!-- er&#45;&gt;aih -->
<g id="edge9" class="edge">
<title>er&#45;&gt;aih</title>
<path fill="none" stroke="gray" d="M77.42,-173.09C99.51,-142.59 149.57,-81.26 209.54,-57.84 345.9,-4.57 523.81,-35.52 608.59,-55.69"/>
<polygon fill="gray" stroke="gray" points="607.92,-59.12 618.46,-58.08 609.57,-52.32 607.92,-59.12"/>
<text text-anchor="middle" x="371.04" y="-55.84" font-family="Times,serif" font-style="italic" font-size="10.00">Updating</text>
<text text-anchor="middle" x="371.04" y="-44.84" font-family="Times,serif" font-style="italic" font-size="10.00">IotEdge</text>
<text text-anchor="middle" x="371.04" y="-33.84" font-family="Times,serif" font-style="italic" font-size="10.00">Modules</text>
</g>
<!-- b&#45;&gt;mo -->
<g id="edge1" class="edge">
<title>b&#45;&gt;mo</title>
<path fill="none" stroke="gray" d="M235.8,-137.78C206.37,-138.11 159.78,-143.15 130.54,-168.84 113.11,-184.15 127.52,-200.12 112.54,-217.84 108.3,-222.86 102.87,-227.14 97.21,-230.72"/>
<polygon fill="gray" stroke="gray" points="95.26,-227.8 88.28,-235.77 98.7,-233.9 95.26,-227.8"/>
<text text-anchor="middle" x="161.04" y="-171.84" font-family="Times,serif" font-style="italic" font-size="10.00">Request</text>
</g>
<!-- v -->
<g id="node6" class="node">
<title>v</title>
<polygon fill="none" stroke="black" points="318.54,-102.84 209.54,-102.84 209.54,-66.84 318.54,-66.84 318.54,-102.84"/>
<text text-anchor="middle" x="264.04" y="-82.34" font-family="Helvetica,sans-Serif" font-size="10.00">USB Video Camera</text>
</g>
<!-- v&#45;&gt;mh -->
<g id="edge8" class="edge">
<title>v&#45;&gt;mh</title>
<path fill="none" stroke="gray" d="M301.78,-102.92C307.43,-105.83 313.17,-108.87 318.54,-111.84 354.72,-131.84 395.33,-156.72 421.61,-173.15"/>
<polygon fill="gray" stroke="gray" points="419.95,-176.24 430.28,-178.59 423.67,-170.31 419.95,-176.24"/>
<text text-anchor="middle" x="371.04" y="-163.84" font-family="Times,serif" font-style="italic" font-size="10.00">Camera Feed</text>
</g>
<!-- acs&#45;&gt;mh -->
<g id="edge10" class="edge">
<title>acs&#45;&gt;mh</title>
<path fill="none" stroke="gray" d="M596.37,-193.62C587.06,-194.54 577.56,-195.33 568.54,-195.84 536.15,-197.65 527.93,-197.67 495.54,-195.84 492.83,-195.68 490.03,-195.48 487.21,-195.23"/>
<polygon fill="gray" stroke="gray" points="487.39,-191.73 477.09,-194.23 486.7,-198.7 487.39,-191.73"/>
<text text-anchor="middle" x="532.04" y="-199.84" font-family="Times,serif" font-style="italic" font-size="10.00">Response</text>
</g>
</g>
</svg>
