<?xml version="1.0" encoding="UTF-8" standalone="no"?>
<!DOCTYPE svg PUBLIC "-//W3C//DTD SVG 1.1//EN"
 "http://www.w3.org/Graphics/SVG/1.1/DTD/svg11.dtd">
<!-- Generated by graphviz version 2.43.0 (0)
 -->
<!-- Title: D Pages: 1 -->
<svg width="425pt" height="158pt"
 viewBox="0.00 0.00 424.70 158.00" xmlns="http://www.w3.org/2000/svg" xmlns:xlink="http://www.w3.org/1999/xlink">
<g id="graph0" class="graph" transform="scale(1 1) rotate(0) translate(4 154)">
<title>D</title>
<polygon fill="white" stroke="transparent" points="-4,4 -4,-154 420.7,-154 420.7,4 -4,4"/>
<text text-anchor="middle" x="208.35" y="-6.8" font-family="Helvetica,sans-Serif" font-size="9.00" fill="#000060">&#45; web_app_dfd &#45;</text>
<g id="clust1" class="cluster">
<title>cluster_0</title>
<polygon fill="none" stroke="black" stroke-dasharray="5,2" points="8,-36 8,-106 84.04,-106 84.04,-36 8,-36"/>
<text text-anchor="middle" x="46.02" y="-94.8" font-family="Helvetica,sans-Serif" font-size="9.00" fill="#000060">Internet</text>
</g>
<g id="clust2" class="cluster">
<title>cluster_1</title>
<polygon fill="none" stroke="black" stroke-dasharray="5,2" points="154.04,-45 154.04,-142 408.7,-142 408.7,-45 154.04,-45"/>
<text text-anchor="middle" x="281.37" y="-130.8" font-family="Helvetica,sans-Serif" font-size="9.00" fill="#000060">Public Cloud</text>
</g>
<!-- ui -->
<g id="node1" class="node">
<title>ui</title>
<ellipse fill="#eeeeee" stroke="black" cx="46.02" cy="-62" rx="30.04" ry="18"/>
<text text-anchor="middle" x="46.02" y="-59.5" font-family="Helvetica,sans-Serif" font-size="10.00">Web UI</text>
</g>
<!-- ws -->
<g id="node2" class="node">
<title>ws</title>
<ellipse fill="#eeeeee" stroke="black" cx="207.37" cy="-83" rx="45.15" ry="18"/>
<text text-anchor="middle" x="207.37" y="-80.5" font-family="Helvetica,sans-Serif" font-size="10.00">Web Service</text>
</g>
<!-- ui&#45;&gt;ws -->
<g id="edge1" class="edge">
<title>ui&#45;&gt;ws</title>
<path fill="none" stroke="gray" d="M75.51,-65.75C97.24,-68.62 127.79,-72.64 153.9,-76.09"/>
<polygon fill="gray" stroke="gray" points="153.66,-79.58 164.04,-77.42 154.58,-72.64 153.66,-79.58"/>
<text text-anchor="middle" x="119.04" y="-77" font-family="Times,serif" font-style="italic" font-size="10.00">Request</text>
</g>
<!-- ws&#45;&gt;ui -->
<g id="edge2" class="edge">
<title>ws&#45;&gt;ui</title>
<path fill="none" stroke="gray" d="M181.18,-68.23C170.17,-62.59 156.86,-56.84 144.04,-54 124.5,-49.68 102.28,-51.06 84.04,-53.81"/>
<polygon fill="gray" stroke="gray" points="83.36,-50.37 74.08,-55.49 84.53,-57.27 83.36,-50.37"/>
<text text-anchor="middle" x="119.04" y="-57" font-family="Times,serif" font-style="italic" font-size="10.00">Response</text>
</g>
<!-- p -->
<g id="node3" class="node">
<title>p</title>
<polygon fill="black" stroke="transparent" points="330.7,-93 330.7,-97 390.7,-97 390.7,-93 330.7,-93"/>
<text text-anchor="start" x="332.7" y="-81" font-family="Helvetica,sans-Serif" font-size="10.00">PostgreSQL</text>
<polygon fill="black" stroke="transparent" points="330.7,-70 330.7,-74 390.7,-74 390.7,-70 330.7,-70"/>
</g>
<!-- ws&#45;&gt;p -->
<g id="edge3" class="edge">
<title>ws&#45;&gt;p</title>
<path fill="none" stroke="gray" d="M247.82,-74.51C264.71,-71.89 284.66,-70.12 302.7,-72 305.25,-72.27 307.86,-72.6 310.48,-72.98"/>
<polygon fill="gray" stroke="gray" points="310.18,-76.48 320.62,-74.66 311.33,-69.57 310.18,-76.48"/>
<text text-anchor="middle" x="286.7" y="-75" font-family="Times,serif" font-style="italic" font-size="10.00">Query</text>
</g>
<!-- p&#45;&gt;ws -->
<g id="edge4" class="edge">
<title>p&#45;&gt;ws</title>
<path fill="none" stroke="gray" d="M320.57,-83.74C303.03,-83.63 282.05,-83.49 263.01,-83.36"/>
<polygon fill="gray" stroke="gray" points="262.98,-79.86 252.96,-83.29 262.93,-86.86 262.98,-79.86"/>
<text text-anchor="middle" x="286.7" y="-86" font-family="Times,serif" font-style="italic" font-size="10.00">Data</text>
</g>
</g>
</svg>
